<svg xmlns="http://www.w3.org/2000/svg" width="155" height="60" fill="none" viewBox="0 0 155 60"><g fill="#000" clip-path="url(#a)"><path d="M64.95 16.393h8.07v-3.441c0-7.059-3.069-10.428-6.449-11.969-1.284-.586-3.37-.897-5.42-.983h-5.453v32.786h9.251c4.548-.002 8.235-3.672 8.235-8.198s-3.687-8.195-8.235-8.195M34.05 26.492c0 4.989-6.5 5.611-6.5 5.611v.685h23.71V0H27.55v.685s6.5.622 6.5 5.61v-.008zM99.185 32.786V0h-4.262c-2.398 0-5.075.31-6.611 1.01-3.38 1.544-6.451 4.919-6.45 11.989v19.787h17.325zM127.449 32.786V32.1s-6.5-.622-6.5-5.61V6.286v.008c0-4.988 6.5-5.61 6.5-5.61V0h-10.765c-2.398 0-5.076.31-6.611 1.01-3.381 1.544-6.452 4.919-6.45 11.989v19.787zM0 45.66h5.99c2.893 0 4.856 1.492 4.856 3.485 0 1.651-.81 2.758-1.922 3.12 1.922.403 2.69 1.913 2.69 3.545 0 2.336-1.779 3.827-5.179 3.827H0V45.661m5.544 5.156c.93 0 1.557-.302 1.557-1.128 0-.865-.729-1.167-1.699-1.167H3.946v2.295zm.404 5.779c1.053 0 1.76-.463 1.76-1.289 0-.765-.626-1.269-1.72-1.269H3.944v2.558h2.004M17.777 45.66h3.743l5.887 13.975h-4.066l-1.052-2.718h-5.302l-1.033 2.718h-4.066l5.887-13.974zm3.358 8.055-1.497-3.927-1.498 3.927h2.996M28.733 45.66h5.99c2.893 0 4.856 1.492 4.856 3.485 0 1.651-.81 2.758-1.922 3.12 1.922.403 2.69 1.913 2.69 3.545 0 2.336-1.78 3.827-5.18 3.827h-6.433V45.663zm5.544 5.156c.93 0 1.557-.302 1.557-1.128 0-.865-.729-1.167-1.699-1.167H32.68v2.295zm.404 5.779c1.053 0 1.76-.463 1.76-1.289 0-.765-.627-1.269-1.72-1.269h-2.044v2.558h2.0039999999999996M45.385 54.4l-4.815-8.74h4.35l2.49 4.513 2.489-4.512h4.35l-4.815 8.8v5.174h-4.047V54.4zM55.698 45.66h3.177l4.33 7.09 4.33-7.09h3.178l.02 13.975h-3.52V52.99l-4.007 6.241-4.008-6.242v6.646h-3.52zM92.644 51.922v7.713h-3.581V45.661h2.873l5.91 5.74v-5.74h3.6v14.237h-.445l-8.357-7.974zM120.63 48.882h-3.781v-3.223h11.284v3.223h-3.78v10.753h-3.723zM130.395 45.66h10.54v3.183h-6.455v2.014h5.442v3.223h-5.442v2.375h6.455v3.182h-10.54V45.661M155 59.635l-2.549-5.244c1.139-.66 2.38-1.593 2.38-3.974 0-3.262-2.292-4.756-5.449-4.756h-5.848v13.974h3.682v-4.461h1.457q.108-.002.217-.006l2.089 4.467H155m-7.782-10.773h1.559c1.517 0 2.313.347 2.313 1.555 0 1.048-.774 1.555-2.272 1.555h-1.598v-3.11zM78.799 56.168a3.69 3.69 0 0 1-2.605-3.52 3.69 3.69 0 0 1 2.605-3.52v-3.726c-3.555.538-6.267 3.593-6.267 7.246 0 3.69 2.712 6.716 6.267 7.247zM80.997 45.398v3.73a3.69 3.69 0 0 1 2.604 3.52 3.69 3.69 0 0 1-2.604 3.52v3.73c3.538-.518 6.266-3.552 6.266-7.25 0-3.662-2.728-6.724-6.266-7.25M115.768 55.143q0 1.365-.724 2.517t-2.024 1.747q-1.3.593-3.276.593-3.47 0-4.808-1.392c-.889-.926-1.334-2.33-1.453-3.76h3.835q.134.983.524 1.505c.433.574 1.185.764 1.99.764.6 0 1.29-.186 1.615-.48.325-.292.458-.675.458-1.063s-.155-.697-.464-.986q-.464-.436-2.153-.823c-1.845-.432-3.38-.827-4.165-1.544q-1.188-1.073-1.187-2.737-.001-1.093.607-2.066t1.828-1.528q1.22-.557 3.346-.556 2.608 0 3.976 1.011 1.369 1.012 1.629 3.216h-4.01q-.177-.773-.616-1.15-.507-.434-1.396-.435-.734.001-1.104.323a1 1 0 0 0-.372.788q0 .34.307.61.297.281 1.41.522 2.756.62 3.949 1.253t1.735 1.573q.544.937.543 2.098"/></g><defs><clipPath id="a"><path fill="#fff" d="M0 0h155v60H0z"/></clipPath></defs></svg>