<svg xmlns="http://www.w3.org/2000/svg" width="800" height="412" overflow="hidden"><defs><clipPath id="a"><path d="M240 132h800v412H240z"/></clipPath><clipPath id="b"><path d="M240 132h800v411H240z"/></clipPath><clipPath id="c"><path d="M240 132h801v411H240z"/></clipPath><clipPath id="d"><path d="M240 132h801v411H240z"/></clipPath></defs><g clip-path="url(#a)" transform="translate(-240 -132)"><g clip-path="url(#b)"><g clip-path="url(#c)"><g clip-path="url(#d)"><path d="M398.96 337.805c15.073-16.613 29.705-33.666 45.428-49.669 9.202-9.402 18.404-18.864 26.515-29.306 6.722-8.661 7.002-15.093.15-21.004-6.491-5.611-14.132-6.931-22.394-4.811-16.313 4.181-31.896 10.532-47.829 15.833-37.217 12.283-73.454 27.496-111.191 38.348-9.501 2.74-19.103 4.87-29.635 5.001a50.642 50.642 0 0 1 3.08-5.562c7.062-9.551 15.513-17.913 23.635-26.524 15.143-16.064 31.886-30.396 49.489-43.769 22.364-17.003 44.698-34.006 70.593-45.478 10.292-4.551 20.904-7.872 32.446-7.872 4.851 0 6.682 1.181 5.781 6.001-1 5.171-1.1 10.142 1.881 14.933 3.35 5.371 7.131 6.601 12.752 4.051 8.642-3.901 11.932-12.342 13.813-19.934 2-8.001 1.9-17.103-1.671-25.275-2.87-6.541-8.001-11.002-15.883-10.581-9.601.59-18.293 4.4-26.655 8.501-16.493 8.112-31.675 18.474-46.008 29.896-18.134 14.322-36.827 27.835-55.921 40.827a358.65 358.65 0 0 0-46.528 37.527 254.011 254.011 0 0 0-19.284 20.064c-7.071 8.412-13.412 17.003-16.003 28.005-1.74 7.392.59 14.533 6.621 18.724 3.651 2.53 12.303 1.7 17.264-1.49 2.42-1.561 4.67-3.271 7.561-4.271 13.002-4.491 25.865-9.172 38.657-14.133 15.803-6.141 31.386-12.872 47.009-19.473 19.624-8.292 39.237-16.664 59.371-23.675 7.311-2.55 14.823-4.551 22.334-6.471 4.201-1.07 4.781 0 3.801 4.511a38.27 38.27 0 0 1-5.501 13.332c-8.072 12.223-18.273 22.664-27.745 33.717a6638.374 6638.374 0 0 0-39.488 46.458c-9.001 10.622-18.213 21.084-26.875 32.006-12.572 15.813-24.844 31.856-37.007 47.959-15.182 20.064-29.735 40.588-42.318 62.412-6.311 10.952-15.122 19.814-24.004 28.535-3.001 2.941-5.101 5.601-5.181 9.792-.08 4.001 1.54 4.661 5.271 3.611a13.856 13.856 0 0 0 8.602-7.262c7.631-14.512 18.413-26.755 28.255-39.647 14.553-19.054 30.006-37.447 44.318-56.641 13.623-18.223 28.746-35.176 43.078-52.789 9.482-11.733 19.274-23.245 29.416-34.407Zm-147.638-51.11c15.753-23.244 37.007-40.777 59.221-57.35-20.244 18.593-38.427 39.327-59.221 57.35Zm63.232 3.261c23.514-12.852 49.009-20.654 74.314-29.005-24.345 10.632-48.849 21.124-74.314 29.005ZM292.38 459.168c4.711-15.563 104.019-139.246 125.663-156.46-39.887 53.27-82.805 104.09-125.663 156.46Z"/><path fill="#BF1C2D" d="M928.279 410.929c-9.602-9.412-21.644-14.453-34.006-18.854-2.481-.89-5.641-.08-7.382-2.87l-9.852-3.271c-5.691.69-10.842-1.77-16.253-2.74-9.001-1.591-18.003-2.631-27.005-4.131-7.231-1.22-14.462-2.361-21.774-3.001-7.311-.64-14.492-2-21.624-2.94.34-1.381.51-2.521.89-3.581 7.552-21.434 15.933-42.558 24.555-63.582 1.52-3.681 1.45-8.051 5.421-10.942 11.682-8.502 23.904-16.133 36.157-23.724 23.514-14.573 46.138-30.586 71.013-43.008a27.183 27.183 0 0 0 13.003-12.883c1.14-2.41.94-3.17-1.841-3.311-6.071-.32-11.562.781-16.583 4.541-12.352 9.242-24.425 18.834-37.247 27.445-12.522 8.412-25.225 16.544-37.177 25.815-6.131 4.751-12.772 8.852-19.274 13.123-1 .65-2.35 1.82-3.61.91-1.26-.91-.71-2.521-.49-3.731a58.623 58.623 0 0 1 1.92-7.481c3.291-10.122 6.661-20.224 10.002-30.326 5.911-17.903 11.172-36.007 18.393-53.49 1.821-4.411 4.231-9.662 1.671-15.073-.42-.88-.82-2.44-1.391-2.3a4.34 4.34 0 0 0-2.46 2.2c-.75 1.591-.35 3.861-3.261 4.431v-8.742l-3.29 1.771c-3.691 2-8.002 3.29-8.542 8.551-.22 2.261-.75 4.491-1.14 6.732-3.001 17.383-7.161 34.536-10.862 51.769-3.751 17.444-11.162 33.937-16.483 51.01-2.811 9.002-8.282 14.873-15.693 20.004-13.633 9.391-26.825 19.413-40.458 28.795-10.772 7.402-19.943 17.113-32.606 21.864-5.751 2.151-7.441 7.782-5.731 14.643 1.67 6.701 6.081 10.562 12.002 10.602 7.572.05 14.893-2.08 22.345-2.621 8.061-.58 16.163-2.47 24.564-1a199.837 199.837 0 0 1-29.655 57.911c-5.001 6.711-4.071 11.642-1.351 17.623 2.001 4.311 6.492 4.391 9.132.46 5.281-7.841 7.651-17.003 11.762-25.434a498.412 498.412 0 0 0 19.184-44.439c2.55-6.741 7.201-9.001 14.443-7.261.749.321 1.535.55 2.34.68 14.483-.09 28.745 2.181 43.008 4.001 11.052 1.42 21.864 3.661 32.166 8.001 3.711-.28 6.641 1.861 9.832 3.171.75.28 1.48.59 2.24.82 8.752 2.591 14.593 8.812 20.004 15.713 2.781 3.561 1.74 7.582 1.68 11.402 0 2.441 1.301 3.291 2.941 3.801 6.321 2 12.402 1.64 18.303-1.85 4.141-2.461 5.271-5.311 2.671-9.472a31.787 31.787 0 0 0-4.601-5.731Zm-147.598-43.078c-.61 2.12-1.44 3.34-4.23 3.36-12.363.05-24.155-2.9-35.877-6.311-2.911-.84-4.151-2.23-2.351-5.671 2.061-3.921 5.721-5.861 8.762-8.432 15.763-13.372 31.646-26.594 48.839-38.147a18.835 18.835 0 0 1 5.441-2.86c-2.18 10.712-6.231 19.854-9.732 29.125-3.64 9.642-8.001 19.004-10.852 28.936Z"/><path d="M533.055 408.968c-2.25-11.792-4.801-23.524-6.691-35.376-2.081-13.003-3.581-26.175-5.291-39.268-1-7.771-2.411-15.513-2.851-23.314-.51-8.912-1.78-17.793-1.21-26.765a4.092 4.092 0 0 1 1.79-3.321 9196.87 9196.87 0 0 1 33.096-23.164c8.272-5.751 17.254-10.192 26.385-14.403 5.331-2.46 7.402-6.331 5.591-9.651-2.4-4.401-5.841-7.722-10.872-9.162-5.491-1.57-9.001.16-11.332 5.371a39.23 39.23 0 0 1-8.351 12.532c-6.722 6.401-12.883 13.393-20.234 19.094-4.641 3.59-8.672 8.001-13.843 10.882-1.81 1-3.4 1.44-3.12-1.39.53-5.341-1.18-10.462-1.11-15.773.3-22.685-.501-45.379 1.89-68.013.88-8.302 1-16.703 2.07-25.005.63-4.881.27-9.812-2.53-14.253-2.801-4.44-11.422-5.511-14.253-1.17-5.471 8.412-8.701 17.614-7.001 27.795.5 3.001.59 5.862.9 8.792.95 8.762 2 17.523 3.191 26.255 1.49 10.812 3.18 21.584 4.76 32.376 1.331 9.002 3.101 18.003 3.751 27.085.32 4.451 2.731 10.102-1.94 13.563-20.954 15.523-41.208 31.926-61.852 47.839-20.964 16.063-41.468 32.556-60.781 50.629-3.901 3.641-7.882 7.352-12.162 10.712-5.782 4.551-11.002 9.912-11.123 18.254-.06 3.09 1.451 3.43 3.601 3 6.001-1.33 11.382-4.111 15.093-9.182a80.467 80.467 0 0 1 10.152-12.002c7.281-6.691 14.843-13.092 21.904-20.004 17.593-17.233 34.396-35.286 54.21-50.129 13.803-10.352 27.575-20.744 41.198-31.326 3-2.34 4.281-.86 4.761 1.6a160.072 160.072 0 0 1 3.06 19.764c.941 13.553 3.811 26.825 5.401 40.278 1.471 12.452 2.871 25.004 4.701 37.367 1.24 8.381 2.911 16.713 3.621 25.134.74 8.802 4.001 17.264 3.271 27.826-1.321 4.881 1.13 9.481 6.691 12.952 1.6 1 3 2.541 4.771 1.53 1.77-1.01 3.56-2.28 3.69-4.881.19-3.58-1.08-6.691-2.49-9.821a148.435 148.435 0 0 1-10.512-33.257ZM765.508 237.126c8.242-13.622 16.674-27.105 27.076-39.277 4.29-5.001 9.211-9.702 11.532-16.243 2.94-8.282.59-11.392-5.101-12.813-7.622-1.89-12.242-1.33-15.823 5.761a78.285 78.285 0 0 1-4.341 8.142 509.491 509.491 0 0 0-28.425 48.669c-5.551 10.782-10.352 22.004-15.453 33.006-7.112 15.403-13.473 31.136-20.154 46.729-2.881 6.701-5.201 13.883-10.452 20.194-.89-3.861.39-6.691.58-9.602 1-15.523 3.151-30.916 4.921-46.359 1.92-16.853 5.851-33.206 9.742-49.639 1.89-8.001 5.251-15.743 5.371-24.134.09-6.002-3.291-10.292-8.002-10.432-5.411-.15-11.632 5.121-11.902 10.321-.19 3.611-.82 7.252-.86 10.773-.25 19.493-1.7 38.907-3.191 58.32-.63 8.182-1.13 16.384-2.09 24.535-1.45 12.302-3.291 24.565-4.881 36.857-1.57 12.072-3 24.174-9.392 34.946-1.32 2.231-2.38 4.711-1.52 7.002 2.15 5.671-.57 9.872-3.07 14.553-12.143 22.724-24.005 45.578-36.007 68.412-7.072 13.503-14.233 27.005-21.004 40.598-5.951 11.882-13.183 23.124-18.004 35.567-1.7 4.41-.52 9.932 1.931 9.872 4.111-.081 6.181-2.841 7.131-6.782a200.11 200.11 0 0 1 8.952-27.075c7.681-19.313 18.003-37.377 26.785-56.17 10.232-21.904 21.474-43.328 33.136-64.522 2.911-5.301 4.771-6.492 10.562-5.001 4.141 1.08 7.151-.27 9.352-3.641 4.061-6.241 4.741-13.423 5.051-20.534a87.902 87.902 0 0 1 2.23-15.473c2.891-12.952 9.312-24.274 15.773-35.707 13.273-23.514 25.525-47.658 39.547-70.853Zm7.752-36.137 2.32 1.001c-14.652 36.736-35.196 70.563-53.54 105.479 13.413-37.277 29.746-73.123 51.22-106.45Z"/><path d="M610.209 340.646c-.95 10.572-.39 21.224 6.262 30.565 3.33 4.661 9.871 7.942 16.643 4.701 6.431-3.07 11.532-8.061 13.792-15.003 4.461-13.622 6.301-27.785 8.302-41.947.77-5.482-.68-11.613 3.16-16.183 2.151 6.191 4.251 12.622 6.622 18.943 2.15 5.721 5.261 10.942 10.062 14.853 3.19 2.6 7.561 5.231 10.952 2.54 3.69-2.93 4.18-8.421 3.84-13.142-.34-4.721-3.66-7.192-8.321-7.892-3.391-.51-5.751-2.36-7.622-5.331-7.531-11.922-9.721-25.394-10.722-39.007-.87-11.812-.78-23.804 1.921-35.477 1.05-4.51-.06-10.001 7.321-11.712 6.371-1.51 8.002-8.831 4.561-14.463-2.06-3.37-5.921-5.531-5.441-10.561.17-1.811-3.001-3.231-5.431-3.421a57.201 57.201 0 0 0-6.001 0c-5.741.17-9.852 4.451-10.152 10.232-.12 2.41.38 4.761-.74 7.261a505.67 505.67 0 0 0-11.222 26.835c-7.422 19.274-14.533 38.647-20.114 58.581a218.268 218.268 0 0 0-7.672 39.628Zm9.092-15.723c2.001-15.403 6.751-30.216 12.733-44.569 4.86-11.672 10.431-23.004 17.673-33.386a11.324 11.324 0 0 1 1.81-1.67c1.91 4.321 1.22 8.301.69 12.562-.83 6.671-.35 13.463-1.09 20.234-2.32 21.154-4.911 42.238-13.643 61.921-2.33 5.241-5.821 10.002-8.881 14.893a4.182 4.182 0 0 1-4.121 2.241c-2.22-.18-2.68-2.001-3.101-3.391a67.026 67.026 0 0 1-2.07-28.835ZM979.219 324.683c1-6.642.86-13.453 4.66-19.704 6.222-10.232 11.383-21.104 17.421-31.466 7.74-13.302 14.7-27.125 24.72-39.007 2.51-3.001 3.78-6.772 4.87-10.492.5-1.701.41-3.671-1.43-4.911-1.84-1.24-2.76.45-4.1 1.1-3.81 1.83-5.71 5.291-7.58 8.672-5.52 9.921-10.37 20.253-15.64 30.255-7.789 14.773-14.78 30.006-22.141 45.009-.87 1.77-1.541 4.861-4.321 2.06-3.001-3-6.121-2.42-9.482-1.13-5.571 2.13-10.092 5.861-14.363 9.822-13.082 12.122-24.374 25.865-35.006 40.087-5.921 7.872-11.852 15.873-15.273 25.245-1.69 4.631-.45 9.192 3.001 12.732 3.45 3.541 7.471 4.061 12.092 2.211 3.681-1.47 6.631-4.001 9.922-6.061 7.391-4.571 13.862-10.612 22.004-14.093a6.245 6.245 0 0 1 .07 4.111c-1.38 6.051-5.221 10.672-8.602 15.613-3 4.331-2.7 9.181.28 12.112 3.461 3.401 7.002 2.54 10.682.29 2.621-1.61 3.411-4.281 4.001-6.911 3.771-16.573 8.402-32.796 15.503-48.369 3.881-8.622 7.291-17.584 8.712-27.175Zm-20.084 28.235c-2.001 6.001-6.791 9.082-11.642 11.922-9.612 5.641-19.544 10.692-30.366 13.763-1.66.47-3.451 1.06-4.711 0-1.47-1.201.22-2.751.67-4.001 3.171-8.812 8.622-16.333 14.463-23.474 7.181-8.782 15.003-17.004 24.425-23.545a63.502 63.502 0 0 1 15.302-8.201c2.681-.931 4.251-.32 3.731 3-.33 3.931-2.45 7.252-4.001 10.812-2.7 6.531-5.641 13.013-7.871 19.724ZM622.452 239.217c2-5.001-.05-8.202-5.321-8.092-4.911.11-7.072 4.001-9.082 7.341-11.362 19.124-19.134 39.878-27.105 60.532-4.141 10.742-6.001 22.314-11.932 33.216 0-8.842-.14-16.943 0-25.005.15-6.761-.32-13.482.78-20.283 1-6.292.34-12.813-3.851-18.224-2.66-3.441-4.521-3.301-6.461.49a30.83 30.83 0 0 0-3.401 18.504 170.13 170.13 0 0 1 1.901 23.534c0 11.652-.28 23.314.08 34.957.3 9.761.44 19.343-4.001 28.405a20.6 20.6 0 0 0-2 12.422c.61 3.771 2.17 7.002 6.411 8.322 2.48.8 4.901 1.61 6.861-.2 3.191-2.941 6.181-5.701 7.001-10.792.67-4.001-.32-7.412-.45-11.062a139.478 139.478 0 0 1 5.531-43.108c4.541-16.003 9.622-31.796 16.423-47.009 6.392-14.363 13.723-28.005 24.905-39.288 1.45-1.45 2.941-2.75 3.711-4.66ZM1036.09 338.045c-1.92-1-3.8-.84-5.75-.94-4.3-.23-8.66.52-13.25-.47a41.982 41.982 0 0 1 11.45-7.352 18.014 18.014 0 0 0 6.32-4.54 4.919 4.919 0 0 0 1.12-5.601c-.94-2.171-2.57-3.001-5-3.111-3.21-.15-5.79 1.19-8.14 2.861a3551.768 3551.768 0 0 0-36.01 25.924 19.005 19.005 0 0 0-7.651 12.183c-.951 5.521.83 10.702 8.161 10.192 4.001-.281 7.111-2.161 10.202-4.201 6.998-4.601 13.798-9.372 20.688-14.073-5.35 8.372-12.94 14.523-19.188 21.854a215.622 215.622 0 0 0-16.783 22.724c-5.101 7.882-12.002 14.583-16.283 23.715 3.601-.22 5.441-2 7.301-3.891a19684.358 19684.358 0 0 1 43.123-43.088c1.15-1.14 2.48-2.17 3.67-3.24 7-6.272 14.19-12.373 18.88-20.734 2.12-3.761.93-6.322-2.86-8.212ZM886.851 389.205c1.391-16.783 6.712-32.576 12.233-48.299 2.53-7.222 5.341-14.323 4.9-22.165-.41-7.521-4.68-9.891-11.002-6.221a10.82 10.82 0 0 1-2.82.63c-2.231.531-4.001 1.851-4.101 4.161-.1 2.311-1 4.531-1 6.741a190.2 190.2 0 0 1-4.121 42.008c-1.45 6.612-1.1 13.583-4.001 19.904ZM875.169 393.085a7.71 7.71 0 0 1 .82 4.751c-1.79 10.712-3.8 21.384-5.351 32.136-.9 6.262-3.23 12.653.2 19.174a6.611 6.611 0 0 0 3.281-3.861c3.23-8.631 2.63-17.923 4.871-26.705 1.9-7.471 2.08-15.403 6.001-22.324-3.181-1.31-6.111-3.451-9.822-3.171ZM882.961 292.567c-.12 4 1.55 5.871 5.581 5.551 5 0 11.382-6.582 11.452-11.843.06-3.74-1.831-5.941-5.501-6.101-5.171-.23-11.372 6.752-11.532 12.393Z"/></g></g></g></g></svg>