<svg xmlns="http://www.w3.org/2000/svg" width="475" height="205"><path fill="#78c8ff" d="M191.305 20.574c-5.14 5.293-9.344 9.688-9.305 9.785.04.075 8.363 8.23 18.531 18.11 10.153 9.898 18.457 18.054 18.457 18.129 0 .078-8.27 8.632-18.36 19.011-10.108 10.36-18.378 18.918-18.378 19.016 0 .172 19.703 19.336 19.875 19.336.191 0 55.828-57.227 55.77-57.363-.075-.172-56.938-55.52-57.114-55.598-.054-.02-4.336 4.277-9.476 9.574zm0 0"/><path fill="#ffdc00" d="M247.613 38.8c-15.715 15.27-28.586 27.837-28.586 27.876-.058.21 55.559 57.21 55.809 57.21s19.953-19.109 19.875-19.28c-.02-.06-8.305-8.598-18.418-18.977-10.09-10.379-18.36-18.914-18.36-18.992 0-.059 8.329-8.23 18.516-18.149 10.188-9.918 18.512-18.093 18.512-18.148 0-.117-16.691-17.324-18.168-18.727L276.16 11l-28.547 27.8zm0 0"/><path d="M45.145 173.48c-6.684 0-10.622 3.86-10.622 10.004v3.356H21.727v-12.852h-4.758v12.852H4.149v4.789h12.82v12.851h4.758V191.63h12.796v3.355c0 6.141 4.313 10.004 10.622 10.004 6.3 0 10.648-3.863 10.648-10.004v-11.5c0-6.129-4.313-10.004-10.648-10.004zm5.886 21.504c0 1.946-.77 5.227-5.886 5.227-2.196 0-5.864-.691-5.864-5.227v-11.5c0-2.238.606-5.226 5.864-5.226 5.25 0 5.886 3.281 5.886 5.226v11.5zM66.93 174h-6.086v30.496h4.761v-21.672l4.508 11.496h4.754l4.508-11.496v21.672h4.762V174h-6.082L72.5 188.246 66.93 174zm32.87-.52c-6.663 0-10.6 3.86-10.6 10.004v11.5c0 6.141 4.312 10.004 10.6 10.004 6.286 0 10.657-3.863 10.657-10.004v-11.5c0-6.144-4.309-10.004-10.656-10.004m5.894 21.504c0 1.946-.757 5.227-5.894 5.227-2.176 0-5.84-.691-5.84-5.227v-11.5c0-2.238.602-5.226 5.84-5.226 5.23 0 5.894 3.281 5.894 5.226v11.5zm69.016-21.504c-6.668 0-10.594 3.86-10.594 10.004v11.5c0 6.141 4.309 10.004 10.594 10.004 6.289 0 10.656-3.863 10.656-10.004v-11.5c0-6.144-4.312-10.004-10.656-10.004m5.902 21.504c0 1.946-.761 5.227-5.902 5.227-2.172 0-5.836-.691-5.836-5.227v-11.5c0-2.238.605-5.226 5.836-5.226 5.234 0 5.902 3.281 5.902 5.226v11.5zm-45.355-11.332c0-5.328-4.309-9.652-9.621-9.652h-10.114v30.48h4.758v-11.187h5.844l4.512 11.187h5.125l-5.067-12.613a9.688 9.688 0 0 0 4.563-8.226m-14.977-4.875h5.399c2.683 0 4.86 2.183 4.86 4.875 0 2.691-2.177 4.875-4.86 4.875h-5.399v-9.75zm39.274 4.886c0-5.328-4.305-9.652-9.617-9.652h-10.125v30.48h4.761v-11.187h5.856l4.508 11.187h5.125l-5.07-12.613a9.679 9.679 0 0 0 4.562-8.226m-14.98-4.875h5.363c2.687 0 4.855 2.183 4.855 4.875 0 2.691-2.168 4.875-4.855 4.875h-5.364v-9.75zm324.769 4.886c0-5.328-4.305-9.652-9.614-9.652h-10.136v30.48h4.773v-11.187h5.84l4.504 11.187h5.14l-5.081-12.613a9.657 9.657 0 0 0 4.574-8.226m-14.977-4.875h5.39c2.68 0 4.86 2.183 4.86 4.875 0 2.691-2.18 4.875-4.86 4.875h-5.359l-.03-9.75zM199.7 184.16l-4.504 11.512V174h-4.765v30.496h6.082l5.574-14.246 5.559 14.246h6.074V174h-4.758v21.672l-4.5-11.512h-4.762zM255.918 174l-11.824 11.867L232.28 174l-3.375 3.383 11.824 11.867-11.824 11.863 3.375 3.383 11.813-11.867 11.824 11.867 3.355-3.383-11.824-11.863 11.824-11.867-3.355-3.383zm117.75 30.496v-4.777h-13.457v-8.074h12.445v-4.793h-12.445v-8.075h13.457V174h-18.219v30.496h18.219zm70.875 0v-4.777h-13.461v-8.074h12.441v-4.793h-12.441v-8.075h13.461V174h-18.219v30.496h18.219zM405.773 174h-4.761v30.496h4.761v-12.965H416.5v12.965h4.758V174H416.5v12.754h-10.727V174zm-21.324 4.777v25.72h4.762v-25.72h7.746V174h-20.238v4.777h7.73zm-71.043-5.297c-6.664 0-10.594 3.86-10.594 10.004v3.356h-12.82v-12.852h-4.754v12.852h-12.8v4.789h12.8v12.851h4.754V191.63h12.82v3.355c0 6.141 4.313 10.004 10.594 10.004 6.293 0 10.664-3.863 10.664-10.004v-11.5c0-6.129-4.312-10.004-10.664-10.004zm5.899 21.504c0 1.946-.762 5.227-5.899 5.227-2.176 0-5.836-.691-5.836-5.227v-11.5c0-2.238.606-5.226 5.836-5.226 5.242 0 5.899 3.281 5.899 5.226v11.5zm19.945-8.132v4.793h6.375v3.351c0 1.945-.758 5.23-5.895 5.23-2.175 0-5.843-.68-5.843-5.23V183.5c0-2.242.605-5.23 5.843-5.23 4.012 0 5.344 2.003 5.739 3.804h4.804c-.625-5.297-4.734-8.578-10.574-8.578-6.668 0-10.597 3.86-10.597 10.004v11.496c0 6.145 4.312 10.004 10.597 10.004 6.293 0 10.656-3.86 10.656-10.004v-8.144H339.25zm0 0"/><path fill="#78c8ff" d="M0 67.902V81.72h53.176V136h28.453V54.086H0v13.816zm0 0"/><path fill="#ffdc00" d="M53.176 40.957v40.957H135V54.281H81.629V0H53.176v40.957zm0 0"/><path fill="#78c8ff" d="M393.254 27.043v27.043H340v27.828h81.746V0h-28.492v27.043zm0 0"/><path fill="#ffdc00" d="M393.254 95.043V136h28.492V81.719H475V54.086h-81.746v40.957zm0 0"/></svg>